<svg xmlns="http://www.w3.org/2000/svg" width="29.136" height="29.136" viewBox="0 0 29.136 29.136">
  <path id="Path_149" data-name="Path 149" d="M3.642,9.105V25.494H25.494V9.105ZM23.673,3.642h3.642a1.72,1.72,0,0,1,1.821,1.821V27.315a1.72,1.72,0,0,1-1.821,1.821H1.821A1.72,1.72,0,0,1,0,27.315V5.463A1.72,1.72,0,0,1,1.821,3.642H5.463V1.821A1.72,1.72,0,0,1,7.284,0,1.72,1.72,0,0,1,9.105,1.821V3.642H20.031V1.821a1.821,1.821,0,1,1,3.642,0Zm-1.821,18.21H18.21V18.21h3.642Zm-5.463,0H12.747V18.21h3.642Zm5.463-5.463H18.21V12.747h3.642Zm-5.463,0H12.747V12.747h3.642Zm-5.463,5.463H7.284V18.21h3.642Z" fill="#fff" fill-rule="evenodd"/>
</svg>
