<svg xmlns="http://www.w3.org/2000/svg" xmlns:xlink="http://www.w3.org/1999/xlink" width="42" height="42" viewBox="0 0 42 42">
  <defs>
    <clipPath id="clip-path">
      <rect width="42" height="42" fill="none"/>
    </clipPath>
  </defs>
  <g id="Folder" clip-path="url(#clip-path)">
    <path id="Path_178" data-name="Path 178" d="M0,28.68V2.583A2.684,2.684,0,0,1,.816.68,2.584,2.584,0,0,1,2.583,0H17.67a1.543,1.543,0,0,1,1.087.408,1.827,1.827,0,0,1,.816.951l1.359,3.806h18.35a2.684,2.684,0,0,1,1.9.816A2.468,2.468,0,0,1,42,7.883V28.816a2.684,2.684,0,0,1-.816,1.9,2.468,2.468,0,0,1-1.9.816H2.583a2.684,2.684,0,0,1-1.9-.816A3.662,3.662,0,0,1,0,28.68Z" transform="translate(0 2)" fill="#ea847c"/>
    <rect id="Rectangle_1447" data-name="Rectangle 1447" width="42" height="42" fill="none"/>
  </g>
</svg>
