<svg xmlns="http://www.w3.org/2000/svg" width="33.107" height="33.107" viewBox="0 0 33.107 33.107">
  <path id="Path_146" data-name="Path 146" d="M16.554,0A16.554,16.554,0,1,0,33.107,16.554,16.6,16.6,0,0,0,16.554,0Zm-.166,27.479a2.318,2.318,0,1,1,2.318-2.318A2.263,2.263,0,0,1,16.388,27.479Zm4.469-12.912-1.821,1.986a2.022,2.022,0,0,0-.662,1.49,2.013,2.013,0,0,1-1.986,1.986A1.913,1.913,0,0,1,14.4,18.043a3.694,3.694,0,0,1,1.324-2.98l1.49-1.821a3.757,3.757,0,0,0,1.159-2.318A1.737,1.737,0,0,0,16.554,9.1a1.947,1.947,0,0,0-1.986,1.49,2.162,2.162,0,0,1-1.986,1.159A1.737,1.737,0,0,1,10.76,9.932a1.8,1.8,0,0,1,.166-.828c.662-1.986,2.649-3.476,5.628-3.476,3.476,0,5.794,2.318,5.794,5.3A5.431,5.431,0,0,1,20.858,14.567Z" fill="#ea847c"/>
</svg>
